<mxfile host="Electron" agent="Mozilla/5.0 (Windows NT 10.0; Win64; x64) AppleWebKit/537.36 (KHTML, like Gecko) draw.io/24.7.8 Chrome/128.0.6613.36 Electron/32.0.1 Safari/537.36" version="24.7.8">
  <diagram name="Page-1" id="MksWr44z-Y2_uWxHBqol">
    <mxGraphModel dx="1834" dy="1270" grid="1" gridSize="10" guides="1" tooltips="1" connect="1" arrows="1" fold="1" page="0" pageScale="1" pageWidth="850" pageHeight="1100" math="0" shadow="0">
      <root>
        <mxCell id="0" />
        <mxCell id="1" parent="0" />
        <mxCell id="g9iSgJ-QtlMSqXlWMMUK-6" value="&lt;p style=&quot;margin: 4px 0px 0px;&quot;&gt;&lt;b&gt;ReadyToUse&lt;br&gt;&lt;br&gt;&lt;br&gt;Press Start button()&lt;/b&gt;&lt;/p&gt;" style="verticalAlign=top;align=left;overflow=fill;html=1;whiteSpace=wrap;" vertex="1" parent="1">
          <mxGeometry x="-119" y="120" width="140" height="220" as="geometry" />
        </mxCell>
        <mxCell id="g9iSgJ-QtlMSqXlWMMUK-7" value="&lt;p style=&quot;margin: 4px 0px 0px;&quot;&gt;&lt;b&gt;Awaiting Cash&lt;br&gt;&lt;br&gt;timeout(30 sec) :&lt;br&gt;if(accept cash):&lt;br&gt;balance = cash&lt;br&gt;state = awating product&lt;br&gt;&lt;br&gt;&lt;br&gt;Else:&lt;br&gt;&lt;span style=&quot;white-space: pre;&quot;&gt;&#x9;&lt;/span&gt;balance=0&lt;br&gt;product = null&lt;br&gt;state = complete transaction&lt;/b&gt;&lt;/p&gt;" style="verticalAlign=top;align=left;overflow=fill;html=1;whiteSpace=wrap;" vertex="1" parent="1">
          <mxGeometry x="120" y="120" width="140" height="220" as="geometry" />
        </mxCell>
        <mxCell id="g9iSgJ-QtlMSqXlWMMUK-8" value="&lt;p style=&quot;margin: 4px 0px 0px;&quot;&gt;&lt;b&gt;Awaiting Product Code&lt;br&gt;&lt;br&gt;&lt;/b&gt;&lt;b&gt;timeout(30 sec) :&lt;br&gt;if(accept code):&lt;br&gt;balance = cash&lt;br&gt;product = code&lt;br&gt;state = perform Tran&lt;br&gt;&lt;br&gt;&lt;br&gt;Else:&lt;br&gt;balance=cash&lt;br&gt;product = null&lt;br&gt;state = perform Transaction&lt;/b&gt;&lt;b&gt;&lt;br&gt;&lt;/b&gt;&lt;/p&gt;" style="verticalAlign=top;align=left;overflow=fill;html=1;whiteSpace=wrap;" vertex="1" parent="1">
          <mxGeometry x="400" y="120" width="140" height="220" as="geometry" />
        </mxCell>
        <mxCell id="g9iSgJ-QtlMSqXlWMMUK-9" value="&lt;p style=&quot;margin: 4px 0px 0px;&quot;&gt;&lt;b&gt;Concluding Transaction&lt;br&gt;&lt;br&gt;if balance:&lt;br&gt;&lt;span style=&quot;white-space: pre;&quot;&gt;&#x9;&lt;/span&gt;Dispense balance()&lt;br&gt;if product:&lt;br&gt;&lt;span style=&quot;white-space: pre;&quot;&gt;&#x9;&lt;/span&gt;Dispense product&lt;br&gt;machine.display()&lt;br&gt;&lt;br&gt;state = ReadyToUse&lt;br&gt;&lt;br&gt;&lt;/b&gt;&lt;/p&gt;" style="verticalAlign=top;align=left;overflow=fill;html=1;whiteSpace=wrap;" vertex="1" parent="1">
          <mxGeometry x="680" y="120" width="140" height="220" as="geometry" />
        </mxCell>
        <mxCell id="g9iSgJ-QtlMSqXlWMMUK-10" value="" style="endArrow=classic;html=1;rounded=0;exitX=0.443;exitY=1.014;exitDx=0;exitDy=0;exitPerimeter=0;entryX=0.571;entryY=1;entryDx=0;entryDy=0;entryPerimeter=0;" edge="1" parent="1" source="g9iSgJ-QtlMSqXlWMMUK-7" target="g9iSgJ-QtlMSqXlWMMUK-9">
          <mxGeometry width="50" height="50" relative="1" as="geometry">
            <mxPoint x="480" y="470" as="sourcePoint" />
            <mxPoint x="830" y="480" as="targetPoint" />
            <Array as="points">
              <mxPoint x="180" y="480" />
              <mxPoint x="760" y="480" />
            </Array>
          </mxGeometry>
        </mxCell>
        <mxCell id="g9iSgJ-QtlMSqXlWMMUK-11" value="" style="endArrow=classic;html=1;rounded=0;exitX=0.443;exitY=1.014;exitDx=0;exitDy=0;exitPerimeter=0;entryX=0.321;entryY=0.995;entryDx=0;entryDy=0;entryPerimeter=0;" edge="1" parent="1" target="g9iSgJ-QtlMSqXlWMMUK-9">
          <mxGeometry width="50" height="50" relative="1" as="geometry">
            <mxPoint x="460" y="350" as="sourcePoint" />
            <mxPoint x="1038" y="347" as="targetPoint" />
            <Array as="points">
              <mxPoint x="460" y="440" />
              <mxPoint x="720" y="440" />
            </Array>
          </mxGeometry>
        </mxCell>
        <mxCell id="g9iSgJ-QtlMSqXlWMMUK-14" value="" style="endArrow=classic;html=1;rounded=0;entryX=0;entryY=0.25;entryDx=0;entryDy=0;exitX=0.779;exitY=0.25;exitDx=0;exitDy=0;exitPerimeter=0;" edge="1" parent="1" source="g9iSgJ-QtlMSqXlWMMUK-6" target="g9iSgJ-QtlMSqXlWMMUK-7">
          <mxGeometry width="50" height="50" relative="1" as="geometry">
            <mxPoint x="480" y="300" as="sourcePoint" />
            <mxPoint x="530" y="250" as="targetPoint" />
          </mxGeometry>
        </mxCell>
        <mxCell id="g9iSgJ-QtlMSqXlWMMUK-15" value="" style="endArrow=classic;html=1;rounded=0;entryX=0.564;entryY=0.018;entryDx=0;entryDy=0;entryPerimeter=0;" edge="1" parent="1" target="g9iSgJ-QtlMSqXlWMMUK-6">
          <mxGeometry width="50" height="50" relative="1" as="geometry">
            <mxPoint x="810" y="250" as="sourcePoint" />
            <mxPoint x="-180" as="targetPoint" />
            <Array as="points">
              <mxPoint x="930" y="250" />
              <mxPoint x="930" />
              <mxPoint x="-40" />
            </Array>
          </mxGeometry>
        </mxCell>
        <mxCell id="g9iSgJ-QtlMSqXlWMMUK-16" value="" style="endArrow=classic;html=1;rounded=0;" edge="1" parent="1" source="g9iSgJ-QtlMSqXlWMMUK-7" target="g9iSgJ-QtlMSqXlWMMUK-8">
          <mxGeometry width="50" height="50" relative="1" as="geometry">
            <mxPoint x="480" y="300" as="sourcePoint" />
            <mxPoint x="530" y="250" as="targetPoint" />
          </mxGeometry>
        </mxCell>
        <mxCell id="g9iSgJ-QtlMSqXlWMMUK-17" value="" style="endArrow=classic;html=1;rounded=0;entryX=0.021;entryY=0.541;entryDx=0;entryDy=0;entryPerimeter=0;exitX=1;exitY=0.545;exitDx=0;exitDy=0;exitPerimeter=0;" edge="1" parent="1" source="g9iSgJ-QtlMSqXlWMMUK-8" target="g9iSgJ-QtlMSqXlWMMUK-9">
          <mxGeometry width="50" height="50" relative="1" as="geometry">
            <mxPoint x="480" y="300" as="sourcePoint" />
            <mxPoint x="530" y="250" as="targetPoint" />
          </mxGeometry>
        </mxCell>
        <mxCell id="g9iSgJ-QtlMSqXlWMMUK-20" value="Abort transaction" style="rounded=1;arcSize=9;align=left;spacingLeft=5;strokeColor=#4C9AFF;html=1;strokeWidth=2;fontSize=12" vertex="1" parent="1">
          <mxGeometry x="200" y="445" width="110" height="33" as="geometry" />
        </mxCell>
        <mxCell id="g9iSgJ-QtlMSqXlWMMUK-21" value="Abort transaction" style="rounded=1;arcSize=9;align=left;spacingLeft=5;strokeColor=#4C9AFF;html=1;strokeWidth=2;fontSize=12" vertex="1" parent="1">
          <mxGeometry x="470" y="400" width="110" height="33" as="geometry" />
        </mxCell>
      </root>
    </mxGraphModel>
  </diagram>
</mxfile>
